# xmcd
#
# Track frame offsets: 
#        150
#        8100
#        25805
#        45092
#        51940
#        72032
#        85782
#        98255
#        120222
#        125760
#        147542
#        167252
#        177940
#        183257
#        222192
#
# Disc length: 3279 seconds
#
# Revision: 6
# Processed by: cddbd v1.5.2PL0 Copyright (c) Steve Scherf et al.
# Submitted via: ExactAudioCopyFreeDBPlugin 1.0
#
DISCID=b40ccd0f
DTITLE=Mr. Oizo - Analog Worms Attack
DYEAR=1999
DGENRE=Electronic
TTITLE0=Bad Start
TTITLE1=Monophonic Shit
TTITLE2=No Day Massacre
TTITLE3=Smoking Tape
TTITLE4=Last Night a DJ Killed My Dog
TTITLE5=The Salad
TTITLE6=Bobby Can't Dance
TTITLE7=Analog Worms Attack
TTITLE8=One Minute Shakin
TTITLE9=Inside the Kidney Machine
TTITLE10=Miaaaw
TTITLE11=Flat 55
TTITLE12=Feadz On
TTITLE13=Analog Wormz Sequel
TTITLE14=Flat Beat
EXTD=YEAR: 1999 ID3G: 18
EXTT0=
EXTT1=
EXTT2=
EXTT3=
EXTT4=
EXTT5=
EXTT6=
EXTT7=
EXTT8=
EXTT9=
EXTT10=
EXTT11=
EXTT12=
EXTT13=
EXTT14=
PLAYORDER=
